<svg width="28" height="29" viewBox="0 0 28 29" fill="none" xmlns="http://www.w3.org/2000/svg">
<g id="icon/resource-group" clip-path="url(#clip0_88_17170)">
<g id="Vector" filter="url(#filter0_d_88_17170)">
<path d="M24.5 7.45508V8.33008L14 11.8301L3.5 8.33008V7.45508L14 3.95508L24.5 7.45508ZM14 13.5801L6.125 10.9551L3.5 11.8301V12.7051L14 16.2051L24.5 12.7051V11.8301L21.875 10.9551L14 13.5801ZM14 17.9551L6.125 15.3301L3.5 16.2051V17.0801L14 20.5801L24.5 17.0801V16.2051L21.875 15.3301L14 17.9551ZM14 22.3301L6.125 19.7051L3.5 20.5801V21.4551L14 24.9551L24.5 21.4551V20.5801L21.875 19.7051L14 22.3301Z" fill="url(#paint0_linear_88_17170)"/>
</g>
</g>
<defs>
<filter id="filter0_d_88_17170" x="-1.3" y="3.95508" width="30.6" height="30.6" filterUnits="userSpaceOnUse" color-interpolation-filters="sRGB">
<feFlood flood-opacity="0" result="BackgroundImageFix"/>
<feColorMatrix in="SourceAlpha" type="matrix" values="0 0 0 0 0 0 0 0 0 0 0 0 0 0 0 0 0 0 127 0" result="hardAlpha"/>
<feOffset dy="4.8"/>
<feGaussianBlur stdDeviation="2.4"/>
<feComposite in2="hardAlpha" operator="out"/>
<feColorMatrix type="matrix" values="0 0 0 0 0 0 0 0 0 0 0 0 0 0 0 0 0 0 0.69 0"/>
<feBlend mode="normal" in2="BackgroundImageFix" result="effect1_dropShadow_88_17170"/>
<feBlend mode="normal" in="SourceGraphic" in2="effect1_dropShadow_88_17170" result="shape"/>
</filter>
<linearGradient id="paint0_linear_88_17170" x1="14" y1="3.95508" x2="14" y2="24.9551" gradientUnits="userSpaceOnUse">
<stop stop-color="white"/>
<stop offset="1" stop-color="#3FB4FF"/>
</linearGradient>
<clipPath id="clip0_88_17170">
<rect width="28" height="28" fill="white" transform="translate(0 0.455078)"/>
</clipPath>
</defs>
</svg>
