<svg width="29" height="29" viewBox="0 0 29 29" fill="none" xmlns="http://www.w3.org/2000/svg">
<g id="icon/ruler" clip-path="url(#clip0_88_17176)">
<g id="Vector" filter="url(#filter0_d_88_17176)">
<path d="M5.11954 19.9394L9.15114 23.971L24.426 8.69606L20.3944 4.66446L19.8764 5.18253L19.1737 5.88524L21.4223 8.1339L19.8323 9.72394L17.5836 7.47528L16.3628 8.69606L19.7358 12.069L18.1458 13.6591L14.7728 10.2861L13.552 11.5069L15.8007 13.7555L14.2106 15.3456L11.962 13.0969L10.7412 14.3177L14.1142 17.6907L12.5241 19.2807L9.15114 15.9078L7.93036 17.1285L10.179 19.3772L8.58898 20.9672L6.34032 18.7186L5.63761 19.4213L5.11954 19.9394Z" fill="url(#paint0_linear_88_17176)"/>
<path fill-rule="evenodd" clip-rule="evenodd" d="M20.3944 1.48438L27.6061 8.69606L9.15114 27.151L1.93945 19.9394L4.04757 17.8312L4.75028 17.1285L6.34032 18.7186L5.63761 19.4213L5.11954 19.9394L9.15114 23.971L24.426 8.69606L20.3944 4.66446L19.8764 5.18253L19.1737 5.88524L17.5836 4.2952L18.2863 3.59249L20.3944 1.48438ZM7.93036 17.1285L9.15114 15.9078L7.5611 14.3177L6.34032 15.5385L7.93036 17.1285ZM10.7412 14.3177L9.15114 12.7277L10.3719 11.5069L11.962 13.0969L10.7412 14.3177ZM13.552 11.5069L14.7728 10.2861L13.1827 8.69606L11.962 9.91684L13.552 11.5069ZM16.3628 8.69606L14.7728 7.10602L15.9936 5.88524L17.5836 7.47528L16.3628 8.69606Z" fill="url(#paint1_linear_88_17176)"/>
</g>
</g>
<defs>
<filter id="filter0_d_88_17176" x="-2.86055" y="1.48438" width="35.266" height="35.266" filterUnits="userSpaceOnUse" color-interpolation-filters="sRGB">
<feFlood flood-opacity="0" result="BackgroundImageFix"/>
<feColorMatrix in="SourceAlpha" type="matrix" values="0 0 0 0 0 0 0 0 0 0 0 0 0 0 0 0 0 0 127 0" result="hardAlpha"/>
<feOffset dy="4.8"/>
<feGaussianBlur stdDeviation="2.4"/>
<feComposite in2="hardAlpha" operator="out"/>
<feColorMatrix type="matrix" values="0 0 0 0 0 0 0 0 0 0 0 0 0 0 0 0 0 0 0.69 0"/>
<feBlend mode="normal" in2="BackgroundImageFix" result="effect1_dropShadow_88_17176"/>
<feBlend mode="normal" in="SourceGraphic" in2="effect1_dropShadow_88_17176" result="shape"/>
</filter>
<linearGradient id="paint0_linear_88_17176" x1="14.7728" y1="1.48437" x2="14.7728" y2="27.151" gradientUnits="userSpaceOnUse">
<stop stop-color="white"/>
<stop offset="1" stop-color="#26FFEF"/>
</linearGradient>
<linearGradient id="paint1_linear_88_17176" x1="14.7728" y1="1.48437" x2="14.7728" y2="27.151" gradientUnits="userSpaceOnUse">
<stop stop-color="white"/>
<stop offset="1" stop-color="#26FFEF"/>
</linearGradient>
<clipPath id="clip0_88_17176">
<rect width="28" height="28" fill="white" transform="translate(0.773438 0.318359)"/>
</clipPath>
</defs>
</svg>
