<svg width="29" height="29" viewBox="0 0 29 29" fill="none" xmlns="http://www.w3.org/2000/svg">
<g id="icon/camera" clip-path="url(#clip0_88_17179)">
<g id="Vector" filter="url(#filter0_d_88_17179)">
<path d="M10.7272 3.81836H17.7272L20.0605 6.15169H24.7272C25.0366 6.15169 25.3334 6.27461 25.5522 6.4934C25.771 6.71219 25.8939 7.00894 25.8939 7.31836V23.6517C25.8939 23.9611 25.771 24.2579 25.5522 24.4766C25.3334 24.6954 25.0366 24.8184 24.7272 24.8184H3.72721C3.41779 24.8184 3.12105 24.6954 2.90226 24.4766C2.68346 24.2579 2.56055 23.9611 2.56055 23.6517V7.31836C2.56055 7.00894 2.68346 6.71219 2.90226 6.4934C3.12105 6.27461 3.41779 6.15169 3.72721 6.15169H8.39388L10.7272 3.81836ZM14.2272 22.485C16.0837 22.485 17.8642 21.7475 19.177 20.4348C20.4897 19.122 21.2272 17.3415 21.2272 15.485C21.2272 13.6285 20.4897 11.848 19.177 10.5353C17.8642 9.22252 16.0837 8.48503 14.2272 8.48503C12.3707 8.48503 10.5902 9.22252 9.27747 10.5353C7.96471 11.848 7.22721 13.6285 7.22721 15.485C7.22721 17.3415 7.96471 19.122 9.27747 20.4348C10.5902 21.7475 12.3707 22.485 14.2272 22.485ZM14.2272 20.1517C12.9895 20.1517 11.8026 19.66 10.9274 18.7849C10.0522 17.9097 9.56055 16.7227 9.56055 15.485C9.56055 14.2473 10.0522 13.0604 10.9274 12.1852C11.8026 11.31 12.9895 10.8184 14.2272 10.8184C15.4649 10.8184 16.6519 11.31 17.527 12.1852C18.4022 13.0604 18.8939 14.2473 18.8939 15.485C18.8939 16.7227 18.4022 17.9097 17.527 18.7849C16.6519 19.66 15.4649 20.1517 14.2272 20.1517Z" fill="url(#paint0_linear_88_17179)"/>
</g>
</g>
<defs>
<filter id="filter0_d_88_17179" x="-2.23945" y="3.81836" width="32.934" height="30.6" filterUnits="userSpaceOnUse" color-interpolation-filters="sRGB">
<feFlood flood-opacity="0" result="BackgroundImageFix"/>
<feColorMatrix in="SourceAlpha" type="matrix" values="0 0 0 0 0 0 0 0 0 0 0 0 0 0 0 0 0 0 127 0" result="hardAlpha"/>
<feOffset dy="4.8"/>
<feGaussianBlur stdDeviation="2.4"/>
<feComposite in2="hardAlpha" operator="out"/>
<feColorMatrix type="matrix" values="0 0 0 0 0 0 0 0 0 0 0 0 0 0 0 0 0 0 0.69 0"/>
<feBlend mode="normal" in2="BackgroundImageFix" result="effect1_dropShadow_88_17179"/>
<feBlend mode="normal" in="SourceGraphic" in2="effect1_dropShadow_88_17179" result="shape"/>
</filter>
<linearGradient id="paint0_linear_88_17179" x1="14.2272" y1="3.81836" x2="14.2272" y2="24.8184" gradientUnits="userSpaceOnUse">
<stop stop-color="white"/>
<stop offset="1" stop-color="#26FFEF"/>
</linearGradient>
<clipPath id="clip0_88_17179">
<rect width="28" height="28" fill="white" transform="translate(0.226562 0.318359)"/>
</clipPath>
</defs>
</svg>
