<svg width="28" height="29" viewBox="0 0 28 29" fill="none" xmlns="http://www.w3.org/2000/svg">
<g id="icon/1/search" clip-path="url(#clip0_71_10356)">
<g id="Group">
<path id="Vector" d="M21.0368 19.6137L26.0337 24.6094L24.3828 26.2602L19.3872 21.2634C17.5283 22.7535 15.2163 23.5639 12.834 23.5605C7.03798 23.5605 2.33398 18.8565 2.33398 13.0605C2.33398 7.26455 7.03798 2.56055 12.834 2.56055C18.63 2.56055 23.334 7.26455 23.334 13.0605C23.3374 15.4429 22.5269 17.7549 21.0368 19.6137ZM18.6965 18.748C20.1771 17.2254 21.004 15.1844 21.0007 13.0605C21.0007 8.54788 17.3455 4.89388 12.834 4.89388C8.32132 4.89388 4.66732 8.54788 4.66732 13.0605C4.66732 17.572 8.32132 21.2272 12.834 21.2272C14.9578 21.2306 16.9989 20.4037 18.5215 18.923L18.6965 18.748V18.748Z" fill="url(#paint0_linear_71_10356)"/>
</g>
</g>
<defs>
<linearGradient id="paint0_linear_71_10356" x1="2.39923" y1="2.56055" x2="2.39923" y2="26.1298" gradientUnits="userSpaceOnUse">
<stop stop-color="white"/>
<stop offset="1" stop-color="#3FB4FF"/>
</linearGradient>
<clipPath id="clip0_71_10356">
<rect width="28" height="28" fill="white" transform="translate(0 0.226562)"/>
</clipPath>
</defs>
</svg>
