<svg width="29" height="29" viewBox="0 0 29 29" fill="none" xmlns="http://www.w3.org/2000/svg">
<g id="icon/data-visualization-F" clip-path="url(#clip0_88_17182)">
<g id="Group">
<g id="Vector" filter="url(#filter0_d_88_17182)">
<path d="M5.16667 21.6823H11V12.349H5.16667V21.6823Z" fill="url(#paint0_linear_88_17182)"/>
<path d="M18 18.9782C17.4676 19.779 17.0956 20.6956 16.9301 21.6823H12.1667V7.68229H18V18.9782Z" fill="url(#paint1_linear_88_17182)"/>
<path d="M25 15.9457C24.6206 15.8821 24.2308 15.849 23.8333 15.849C22.0405 15.849 20.4051 16.523 19.1667 17.6314V3.01562H25V15.9457Z" fill="url(#paint2_linear_88_17182)"/>
<path d="M16.9301 24.0156C17.0706 24.8532 17.3599 25.6403 17.7698 26.349H4V24.0156H16.9301Z" fill="url(#paint3_linear_88_17182)"/>
<path d="M19.1667 22.849C19.5721 20.526 21.5075 18.7656 23.8333 18.7656C26.1591 18.7656 28.0941 20.526 28.5 22.849C28.0945 25.1719 26.1591 26.9323 23.8333 26.9323C21.5075 26.9323 19.5726 25.1719 19.1667 22.849ZM23.8333 25.1175C24.4053 25.1175 24.9539 24.8785 25.3583 24.453C25.7628 24.0276 25.99 23.4506 25.99 22.849C25.99 22.2473 25.7628 21.6703 25.3583 21.2449C24.9539 20.8194 24.4053 20.5804 23.8333 20.5804C23.2613 20.5804 22.7128 20.8194 22.3083 21.2449C21.9039 21.6703 21.6766 22.2473 21.6766 22.849C21.6766 23.4506 21.9039 24.0276 22.3083 24.453C22.7128 24.8785 23.2613 25.1175 23.8333 25.1175ZM23.8333 24.2101C23.4901 24.2101 23.161 24.0667 22.9183 23.8114C22.6756 23.5562 22.5393 23.2099 22.5393 22.849C22.5393 22.488 22.6756 22.1418 22.9183 21.8865C23.161 21.6312 23.4901 21.4878 23.8333 21.4878C24.1765 21.4878 24.5057 21.6312 24.7483 21.8865C24.991 22.1418 25.1274 22.488 25.1274 22.849C25.1274 23.2099 24.991 23.5562 24.7483 23.8114C24.5057 24.0667 24.1765 24.2101 23.8333 24.2101Z" fill="url(#paint4_linear_88_17182)"/>
</g>
</g>
</g>
<defs>
<filter id="filter0_d_88_17182" x="-0.8" y="3.01562" width="34.1" height="33.516" filterUnits="userSpaceOnUse" color-interpolation-filters="sRGB">
<feFlood flood-opacity="0" result="BackgroundImageFix"/>
<feColorMatrix in="SourceAlpha" type="matrix" values="0 0 0 0 0 0 0 0 0 0 0 0 0 0 0 0 0 0 127 0" result="hardAlpha"/>
<feOffset dy="4.8"/>
<feGaussianBlur stdDeviation="2.4"/>
<feComposite in2="hardAlpha" operator="out"/>
<feColorMatrix type="matrix" values="0 0 0 0 0 0 0 0 0 0 0 0 0 0 0 0 0 0 0.69 0"/>
<feBlend mode="normal" in2="BackgroundImageFix" result="effect1_dropShadow_88_17182"/>
<feBlend mode="normal" in="SourceGraphic" in2="effect1_dropShadow_88_17182" result="shape"/>
</filter>
<linearGradient id="paint0_linear_88_17182" x1="16.25" y1="3.01562" x2="16.25" y2="26.9323" gradientUnits="userSpaceOnUse">
<stop stop-color="white"/>
<stop offset="1" stop-color="#26FFEF"/>
</linearGradient>
<linearGradient id="paint1_linear_88_17182" x1="16.25" y1="3.01562" x2="16.25" y2="26.9323" gradientUnits="userSpaceOnUse">
<stop stop-color="white"/>
<stop offset="1" stop-color="#26FFEF"/>
</linearGradient>
<linearGradient id="paint2_linear_88_17182" x1="16.25" y1="3.01562" x2="16.25" y2="26.9323" gradientUnits="userSpaceOnUse">
<stop stop-color="white"/>
<stop offset="1" stop-color="#26FFEF"/>
</linearGradient>
<linearGradient id="paint3_linear_88_17182" x1="16.25" y1="3.01562" x2="16.25" y2="26.9323" gradientUnits="userSpaceOnUse">
<stop stop-color="white"/>
<stop offset="1" stop-color="#26FFEF"/>
</linearGradient>
<linearGradient id="paint4_linear_88_17182" x1="16.25" y1="3.01562" x2="16.25" y2="26.9323" gradientUnits="userSpaceOnUse">
<stop stop-color="white"/>
<stop offset="1" stop-color="#26FFEF"/>
</linearGradient>
<clipPath id="clip0_88_17182">
<rect width="28" height="28" fill="white" transform="translate(0.5 0.681641)"/>
</clipPath>
</defs>
</svg>
