<svg width="29" height="29" viewBox="0 0 29 29" fill="none" xmlns="http://www.w3.org/2000/svg">
<g id="icon/plot">
<g id="&#229;&#189;&#162;&#231;&#138;&#182;&#231;&#187;&#147;&#229;&#144;&#136;" filter="url(#filter0_d_88_17173)">
<path d="M27.3327 6.30413C27.3327 6.16071 27.2862 6.03164 27.1933 5.91693L25.7163 4.42589C25.6234 4.31118 25.5072 4.25391 25.3678 4.25391C25.2284 4.25391 25.1031 4.31118 24.9916 4.42589L23.9325 5.5157L26.1343 7.7521L27.1933 6.66245C27.2862 6.56705 27.3327 6.44739 27.3327 6.30413Z" fill="url(#paint0_linear_88_17173)"/>
<path d="M25.0479 8.89916L22.8183 6.6626L14.6521 15.0928L13.6489 17.7022C13.5744 17.9123 13.6163 18.0941 13.7743 18.247C13.9323 18.3998 14.1226 18.4383 14.3456 18.3615L16.8819 17.358L25.0479 8.89916Z" fill="url(#paint1_linear_88_17173)"/>
<path fill-rule="evenodd" clip-rule="evenodd" d="M3.12804 4.65542C3.1866 4.64965 3.24435 4.64668 3.3013 4.64668C3.61541 4.64668 3.90578 4.73531 4.1732 4.91323C4.48891 5.12334 4.72137 5.41993 4.86992 5.80218L17.7461 10.1892L17.3289 10.6185L13.2326 14.8624L11.4768 19.3072C11.3467 19.7086 11.4071 20.0431 11.658 20.3105C11.9088 20.578 12.2385 20.6452 12.6474 20.5112L17.0231 18.7047L20.1167 15.522L20.1169 15.5331L20.7284 14.9206V19.4799C21.0441 19.5946 21.3045 19.7953 21.5087 20.0821C21.7131 20.3688 21.8246 20.7034 21.8432 21.0856C21.8246 21.5063 21.6898 21.8693 21.4391 22.1753C21.1882 22.4813 20.8587 22.6676 20.4496 22.7344C20.3475 22.7511 20.2479 22.7595 20.1509 22.7595C19.86 22.7595 19.5926 22.6843 19.3488 22.5338C19.0236 22.3331 18.7866 22.0318 18.6381 21.6304L7.15547 23.9817C7.02521 24.3452 6.80238 24.6318 6.4865 24.8419C6.21924 25.0197 5.92181 25.1088 5.59455 25.1088C5.53519 25.1088 5.47488 25.1059 5.41359 25.1001C5.01414 25.062 4.68415 24.9042 4.4241 24.6269C4.16406 24.3496 4.01085 24.0104 3.96433 23.609C3.91765 23.2076 3.9969 22.8442 4.20112 22.5194C4.40549 22.1944 4.69361 21.9554 5.06515 21.8026L2.77977 7.95292C2.40823 7.81906 2.12011 7.58519 1.91573 7.25047C1.71151 6.91592 1.63242 6.55282 1.67894 6.16083C1.72546 5.76884 1.88316 5.42966 2.15267 5.14298C2.42218 4.85629 2.7472 4.69355 3.12804 4.65542ZM3.56832 5.87614C3.48121 5.81788 3.40148 5.79312 3.30202 5.79312C3.28132 5.79312 3.25918 5.79427 3.23672 5.79659C3.11977 5.8083 3.04069 5.84841 2.9547 5.93968C2.85363 6.04729 2.80342 6.1549 2.78625 6.29949C2.77069 6.42954 2.79235 6.52824 2.86037 6.63998C2.92967 6.75337 3.01598 6.82219 3.14913 6.87006L3.27811 6.9166L3.50495 6.84976C3.59158 6.82417 3.63088 6.79083 3.65799 6.76146C3.7273 6.68636 3.78056 6.59344 3.82066 6.47724L3.8736 6.3254L3.83558 6.22769C3.77254 6.06561 3.69024 5.95701 3.56832 5.87614ZM20.357 20.5612L20.1925 20.5014L20.0689 20.5503C19.9739 20.5877 19.8961 20.6387 19.8303 20.7064C19.7647 20.7739 19.715 20.8543 19.6787 20.9518L19.629 21.0847L19.6798 21.222C19.7556 21.4268 19.8491 21.5047 19.9221 21.5498C19.9928 21.5935 20.0613 21.6122 20.1508 21.6122C20.1923 21.6119 20.2336 21.6082 20.2745 21.6013C20.4532 21.5722 20.5302 21.5044 20.5867 21.4354C20.6688 21.3354 20.7117 21.2293 20.7255 21.0882C20.7078 20.9165 20.6518 20.8193 20.6093 20.7599C20.5373 20.6585 20.4617 20.5991 20.357 20.5612ZM5.5962 22.8185L5.69518 22.8609C5.78293 22.8985 5.86587 22.9583 5.94849 23.0431C6.02453 23.1215 6.07715 23.204 6.11405 23.3029L6.16281 23.4336L6.10875 23.5846C6.06207 23.7152 5.99373 23.8031 5.88047 23.8784C5.79432 23.9358 5.70593 23.9614 5.59395 23.9614C5.56909 23.9614 5.54294 23.9601 5.51599 23.9575C5.35123 23.9418 5.2792 23.887 5.22578 23.83C5.13482 23.733 5.08846 23.6262 5.07065 23.4727C5.05124 23.305 5.09087 23.2146 5.13659 23.142C5.21535 23.0167 5.32075 22.9318 5.47845 22.867L5.5962 22.8185Z" fill="url(#paint2_linear_88_17173)"/>
</g>
</g>
<defs>
<filter id="filter0_d_88_17173" x="-3.13398" y="4.25391" width="35.266" height="30.4555" filterUnits="userSpaceOnUse" color-interpolation-filters="sRGB">
<feFlood flood-opacity="0" result="BackgroundImageFix"/>
<feColorMatrix in="SourceAlpha" type="matrix" values="0 0 0 0 0 0 0 0 0 0 0 0 0 0 0 0 0 0 127 0" result="hardAlpha"/>
<feOffset dy="4.8"/>
<feGaussianBlur stdDeviation="2.4"/>
<feComposite in2="hardAlpha" operator="out"/>
<feColorMatrix type="matrix" values="0 0 0 0 0 0 0 0 0 0 0 0 0 0 0 0 0 0 0.69 0"/>
<feBlend mode="normal" in2="BackgroundImageFix" result="effect1_dropShadow_88_17173"/>
<feBlend mode="normal" in="SourceGraphic" in2="effect1_dropShadow_88_17173" result="shape"/>
</filter>
<linearGradient id="paint0_linear_88_17173" x1="14.4993" y1="4.25391" x2="14.4993" y2="25.1088" gradientUnits="userSpaceOnUse">
<stop stop-color="white"/>
<stop offset="1" stop-color="#26FFEF"/>
</linearGradient>
<linearGradient id="paint1_linear_88_17173" x1="14.4993" y1="4.25391" x2="14.4993" y2="25.1088" gradientUnits="userSpaceOnUse">
<stop stop-color="white"/>
<stop offset="1" stop-color="#26FFEF"/>
</linearGradient>
<linearGradient id="paint2_linear_88_17173" x1="14.4993" y1="4.25391" x2="14.4993" y2="25.1088" gradientUnits="userSpaceOnUse">
<stop stop-color="white"/>
<stop offset="1" stop-color="#26FFEF"/>
</linearGradient>
</defs>
</svg>
